<svg width="66" height="17" viewBox="0 0 66 17" fill="none" xmlns="http://www.w3.org/2000/svg">
<g clip-path="url(#clip0_29303_11430)">
<path d="M5.20829 17.0001C4.54127 17.0107 3.87663 16.9183 3.238 16.7262C2.70423 16.5622 2.19916 16.3169 1.74068 15.999C1.33054 15.7136 0.968539 15.365 0.668224 14.9664C0.39279 14.6044 0.167994 14.2068 0 13.7846L2.69627 12.6369C2.90986 13.1624 3.2731 13.6141 3.74123 13.9366C4.17771 14.2181 4.68837 14.3639 5.20829 14.3556C5.75827 14.3556 6.19596 14.2561 6.52137 14.0571C6.84448 13.8585 7.00535 13.6202 7.00535 13.345C7.00666 13.197 6.97042 13.0512 6.89999 12.9209C6.82956 12.7907 6.72722 12.6803 6.60249 12.6C6.333 12.4082 5.86827 12.2357 5.20829 12.0823L3.61748 11.744C3.23902 11.6601 2.87037 11.5371 2.51753 11.377C2.14685 11.2123 1.8015 10.996 1.49182 10.7347C1.18188 10.4703 0.924041 10.1508 0.731471 9.79251C0.528085 9.39534 0.428316 8.95358 0.441357 8.50793C0.432078 7.99568 0.555181 7.48966 0.798843 7.03847C1.03958 6.60508 1.37453 6.23076 1.77918 5.94288C2.22305 5.63148 2.71815 5.39975 3.24212 5.25813C3.83029 5.09271 4.43902 5.0111 5.05018 5.01574C6.04907 4.99729 7.03827 5.21358 7.93756 5.64707C8.77885 6.07293 9.43714 6.78746 9.79099 7.65884L7.18684 8.71472C6.99314 8.29572 6.65922 7.95683 6.24225 7.75608C5.85763 7.56494 5.43461 7.46288 5.0048 7.45753C4.61346 7.44708 4.22589 7.53616 3.87872 7.71636C3.55515 7.89166 3.39382 8.11717 3.39474 8.39289C3.39542 8.52312 3.43293 8.65051 3.50297 8.76048C3.573 8.87045 3.67273 8.95853 3.79073 9.01464C4.13868 9.19688 4.50822 9.33491 4.89068 9.42548L6.61899 9.83633C7.77119 10.1102 8.62778 10.5503 9.18876 11.1565C9.7389 11.7354 10.0403 12.5055 10.0289 13.3025C10.0297 13.79 9.91123 14.2704 9.68374 14.7021C9.44241 15.1589 9.10916 15.5612 8.70478 15.884C8.2502 16.2467 7.73301 16.5237 7.17859 16.7016C6.54253 16.9073 5.877 17.0081 5.20829 17.0001Z" fill="black"></path>
<path d="M12.9973 7.95678H11.0146V5.38625H12.9973V1.94336H16.0222V5.38625H18.7872V7.95678H16.0153V12.4501C16.0128 12.7007 16.0401 12.9508 16.0964 13.1951C16.1441 13.4135 16.2517 13.6145 16.4072 13.7757C16.5221 13.9039 16.6647 14.0045 16.8243 14.07C16.9838 14.1355 17.1562 14.1641 17.3284 14.1537C17.7054 14.1757 18.0788 14.0705 18.3885 13.8552L19.2409 16.4942C18.8777 16.6658 18.495 16.7931 18.1011 16.8735C17.6569 16.9608 17.205 17.003 16.7523 16.9995C16.2289 17.0061 15.709 16.9131 15.2206 16.7256C14.7922 16.5625 14.4032 16.311 14.0794 15.9874C13.358 15.2854 12.9973 14.2861 12.9973 12.9896V7.95678Z" fill="black"></path>
<path d="M20.9926 5.38649H23.8263V6.94633H24.0106C24.1523 6.66638 24.338 6.41073 24.5605 6.18901C24.794 5.95925 25.0543 5.75831 25.336 5.59054C25.6259 5.41828 25.9351 5.28039 26.2572 5.1797C26.5738 5.07666 26.9045 5.02352 27.2376 5.02221C27.5834 5.01529 27.9284 5.05818 28.2619 5.14957C28.5195 5.22233 28.7644 5.33411 28.9879 5.48098L28.1821 8.16655C27.9877 8.07064 27.7829 7.99713 27.5717 7.94743C27.3029 7.88971 27.0284 7.86306 26.7536 7.868C26.3637 7.86245 25.9777 7.94535 25.6247 8.1104C25.2881 8.27042 24.9924 8.50456 24.7599 8.79514C24.5153 9.10128 24.3289 9.44937 24.2099 9.82226C24.0758 10.2353 24.0094 10.6672 24.0133 11.1014V16.6396H20.9926V5.38649Z" fill="black"></path>
<path d="M33.5775 16.6329V5.38672H30.5526V16.6329H33.5775Z" fill="black"></path>
<path d="M39.5421 16.6329V5.38672H36.5172V16.6329H39.5421Z" fill="black"></path>
<path d="M41.1083 5.38672H44.5456L47.3574 12.5478H47.5196L50.352 5.38672H53.7619L48.9001 16.6329H45.9247L41.1083 5.38672Z" fill="black"></path>
<path d="M65.6702 10.7563C65.6484 10.1823 65.5734 9.61152 65.4461 9.05128C65.4461 9.04032 65.4379 9.028 65.4365 9.01841C65.3966 8.86914 65.3526 8.72397 65.299 8.58018C65.0704 7.88923 64.7016 7.25247 64.2155 6.70946C63.7264 6.17084 63.1241 5.74626 62.4515 5.46596C61.6831 5.15678 60.8601 5.00494 60.0316 5.01951C59.2191 5.01007 58.414 5.17446 57.6708 5.50157C56.2602 6.12091 55.154 7.27247 54.595 8.70343C54.3015 9.43693 54.153 10.22 54.1578 11.0096C54.1479 11.8304 54.2997 12.6451 54.6047 13.4076C54.8912 14.118 55.319 14.7633 55.8625 15.3046C56.406 15.8459 57.0538 16.2721 57.767 16.5574C58.5248 16.8599 59.3349 17.0111 60.1512 17.0025C61.4271 17.0025 62.5065 16.7204 63.3892 16.1562C64.2645 15.5967 64.9883 14.8315 65.497 13.928L62.9863 12.6955C62.7273 13.168 62.3604 13.5733 61.9152 13.8787C61.4615 14.1928 60.8891 14.3494 60.1979 14.3485C59.847 14.3494 59.4978 14.2996 59.1612 14.2005C58.8225 14.0994 58.5058 13.9359 58.2276 13.7185C57.9382 13.4905 57.6955 13.2092 57.5127 12.89C57.3091 12.5254 57.1805 12.1241 57.1346 11.7095H65.6358C65.6619 11.5449 65.6775 11.3789 65.6826 11.2123V10.9275C65.673 10.8631 65.673 10.8097 65.6702 10.7563ZM57.2831 9.56347C57.451 8.95053 57.8179 8.41021 58.3266 8.0269C58.8173 7.66017 59.4169 7.46735 60.0302 7.47911C60.4342 7.4689 60.8363 7.53728 61.214 7.68042C61.5191 7.80504 61.7987 7.9842 62.039 8.20905C62.248 8.40544 62.4203 8.6373 62.5477 8.89379C62.6506 9.10287 62.7166 9.328 62.743 9.55936L57.2831 9.56347Z" fill="black"></path>
<path d="M32.0529 3.87213C31.5379 3.87288 31.0436 3.67051 30.678 3.30927C30.503 3.13448 30.363 2.92812 30.2655 2.70122C30.0656 2.21596 30.0656 1.67183 30.2655 1.18657C30.363 0.959254 30.503 0.752452 30.678 0.577145C31.0451 0.218492 31.5387 0.0175781 32.0529 0.0175781C32.5671 0.0175781 33.0608 0.218492 33.4279 0.577145C33.6108 0.75566 33.7561 0.968735 33.8553 1.20389C33.9545 1.43905 34.0056 1.69156 34.0056 1.94663C34.0056 2.20171 33.9545 2.45422 33.8553 2.68937C33.7561 2.92453 33.6108 3.1376 33.4279 3.31612C33.2472 3.49785 33.0316 3.64138 32.7939 3.73809C32.5562 3.83481 32.3014 3.88273 32.0447 3.87898L32.0529 3.87213Z" fill="#0DBB52"></path>
<path d="M38.0213 3.87218C37.5062 3.87353 37.0116 3.67107 36.6464 3.30932C36.4714 3.13452 36.3314 2.92817 36.2339 2.70127C36.034 2.21601 36.034 1.67187 36.2339 1.18661C36.3314 0.959302 36.4714 0.752499 36.6464 0.577193C36.8247 0.401194 37.0358 0.261626 37.2678 0.166347C37.6243 0.018894 38.0165 -0.0207756 38.3955 0.0522841C38.7745 0.125344 39.1235 0.307901 39.399 0.577193C39.5819 0.755707 39.7273 0.968783 39.8265 1.20394C39.9257 1.4391 39.9768 1.69161 39.9768 1.94668C39.9768 2.20175 39.9257 2.45426 39.8265 2.68942C39.7273 2.92458 39.5819 3.13765 39.399 3.31617C39.2187 3.49798 39.0034 3.64158 38.7659 3.73831C38.5284 3.83504 38.2737 3.88291 38.0172 3.87902L38.0213 3.87218Z" fill="#0DBB52"></path>
</g>
<defs>
<clipPath id="clip0_29303_11430">
<rect width="65.6729" height="16.9844" fill="white" transform="translate(0 0.015625)"></rect>
</clipPath>
</defs>
</svg>